<svg width="870" height="200" viewBox="0 0 870 200" fill="none" xmlns="http://www.w3.org/2000/svg">
<path d="M689.71 36H677.61C677.17 36 676.81 35.64 676.81 35.2V23.1C676.81 21.39 678.2 20 679.91 20H692.01C692.45 20 692.81 20.36 692.81 20.8V32.9C692.81 34.61 691.42 36 689.71 36Z" fill="#373CE0"/>
<path d="M281.47 136.96H336.95C345.06 136.96 348.75 132.72 348.75 124.61C348.75 114.29 339.9 112.44 324.79 108.76L306.91 104.34C288.29 99.73 280 92.54 280 76.14C280 59.74 289.22 51.81 306.36 51.81H359.26V64.34H308.02C298.99 64.34 295.49 67.47 295.49 76.14C295.49 87.02 303.05 89.6 313.74 92.36L333.09 97.34C352.81 102.32 364.98 105.82 364.98 124.8C364.98 139.91 359.45 149.5 340.83 149.5H281.48V136.96H281.47Z" fill="#19145F"/>
<path d="M412.22 149.49C383.1 149.49 377.01 130.5 377.01 101.01C377.01 65.07 388.44 50.69 421.43 50.69C447.42 50.69 465.85 59.17 465.85 88.66C465.85 99.9 462.35 105.8 451.29 105.8H393.04C393.04 121.65 395.8 136.95 415.53 136.95H463.27V149.48H412.22V149.49ZM445.21 93.27C448.9 93.27 449.63 90.51 449.63 88.29V87.55C449.63 69.12 438.02 63.22 421.61 63.22C401.52 63.22 393.04 70.96 393.04 93.27H445.21Z" fill="#19145F"/>
<path d="M481.18 67.84C481.18 57.7 485.42 51.8 496.11 51.8H531.13C552.33 51.8 564.12 61.02 564.12 83.5V149.49H548.64V86.27C548.64 73 543.85 64.34 529.1 64.34H502.37C498.68 64.34 496.66 65.63 496.66 70.61V149.5H481.18V67.84Z" fill="#19145F"/>
<path d="M579.54 136.96H635.02C643.13 136.96 646.82 132.72 646.82 124.61C646.82 114.29 637.97 112.44 622.86 108.76L604.98 104.34C586.36 99.73 578.07 92.54 578.07 76.14C578.07 59.74 587.29 51.81 604.43 51.81H657.33V64.34H606.09C597.06 64.34 593.56 67.47 593.56 76.14C593.56 87.02 601.12 89.6 611.81 92.36L631.16 97.34C650.88 102.32 663.05 105.82 663.05 124.8C663.05 139.91 657.52 149.5 638.9 149.5H579.55V136.96H579.54Z" fill="#19145F"/>
<path d="M677.07 51.8H692.55V149.49H677.07V51.8Z" fill="#19145F"/>
<path d="M749.65 149.49C725.32 149.49 718.5 137.88 718.5 118.15V64.33H704.12V51.8H718.5V20H733.98V51.8H761.26V64.33H733.98V117.23C733.98 132.34 739.88 136.95 754.81 136.95H761.26V149.48H749.65V149.49Z" fill="#19145F"/>
<path d="M812.21 180H796.01L810.46 149.49L768.06 51.8H784.28L818.38 132.53L853.77 51.8H870L812.21 180Z" fill="#19145F"/>
<path d="M122 130H71.5C70.67 130 70 129.33 70 128.5V78C70 73.58 73.58 70 78 70H128.5C129.33 70 130 70.67 130 71.5V122C130 126.42 126.42 130 122 130Z" fill="#373CE0"/>
<path d="M38 140H8C3.58 140 0 136.42 0 132V8C0 3.58 3.58 0 8 0H132C136.42 0 140 3.58 140 8V38C140 39.1 139.1 40 138 40H44C41.79 40 40 41.79 40 44V138C40 139.1 39.1 140 38 140Z" fill="#373CE0"/>
<path d="M162 60H192C196.42 60 200 63.58 200 68V192C200 196.42 196.42 200 192 200H68C63.58 200 60 196.42 60 192V162C60 160.9 60.9 160 62 160H156C158.21 160 160 158.21 160 156V62C160 60.9 160.9 60 162 60Z" fill="#373CE0"/>
</svg>
